<?xml version="1.0" encoding="UTF-8" standalone="no"?>
<svg height="160" viewBox="0 0 128 160" width="128" xmlns="http://www.w3.org/2000/svg">
<defs>
<path d="M 236 0 Q 209 -0 183.5 -5 Q 158 -10 135 -23 Q 112 -36 95 -56 Q 78 -76 67 -100 Q 56 -124 52 -150 Q 48 -176 48 -202 Q 48 -230 53.5 -258 Q 59 -286 72.5 -310.5 Q 86 -335 108 -354 Q 130 -373 156 -383 Q 133 -394 114.5 -411.5 Q 96 -429 84 -451 Q 72 -473 68 -498 Q 64 -523 64 -549 Q 64 -573 68 -597.5 Q 72 -622 81.5 -645 Q 91 -668 106.5 -687.5 Q 122 -707 143 -719.5 Q 164 -732 188.5 -737.5 Q 213 -743 238 -743 Q 269 -743 300 -735.5 Q 331 -728 356 -709 Q 381 -690 394.5 -660.5 Q 408 -631 409 -600 L 331 -600 Q 331 -617 323 -632 Q 315 -647 301 -656.5 Q 287 -666 270.5 -669.5 Q 254 -673 238 -673 Q 223 -673 208 -669 Q 193 -665 181.5 -655.5 Q 170 -646 162 -633 Q 154 -620 149.5 -606 Q 145 -592 143.5 -577 Q 142 -562 142 -547 Q 142 -523 147 -499 Q 152 -475 166 -455.5 Q 180 -436 203 -426 Q 226 -416 250 -416 L 329 -416 L 329 -485 L 407 -485 L 407 -416 L 454 -416 L 454 -348 L 407 -348 L 407 0 Z M 329 -70 L 329 -348 L 250 -348 Q 232 -348 214 -344 Q 196 -340 181 -330.5 Q 166 -321 155 -306.5 Q 144 -292 137.5 -275 Q 131 -258 128.5 -240 Q 126 -222 126 -204 Q 126 -179 131 -154.5 Q 136 -130 150.5 -110 Q 165 -90 188 -80 Q 211 -70 236 -70 Z " id="path1"/>
</defs>
<g>
<g data-source-text="&amp;" fill="#20242e" transform="translate(40 104.99201) rotate(0) scale(0.09599999)">
<use href="#path1" transform="translate(0 0)"/>
</g>
</g>
</svg>