<?xml version="1.0" encoding="UTF-8" standalone="no"?>
<svg height="160" viewBox="0 0 128 160" width="128" xmlns="http://www.w3.org/2000/svg">
<defs>
<path d="M 250 0 Q 227 -0 204.5 -2.5 Q 182 -5 160.5 -11.5 Q 139 -18 119 -29.5 Q 99 -41 84 -58 Q 69 -75 62.5 -97 Q 56 -119 56 -142 Q 56 -167 63 -192 Q 70 -217 86 -236.5 Q 102 -256 123.5 -270 Q 145 -284 169 -292 Q 193 -300 218 -303 Q 243 -306 269 -306 L 358 -306 L 358 -354 Q 358 -375 351 -396 Q 344 -417 328.5 -431.5 Q 313 -446 291.5 -452 Q 270 -458 249 -458 Q 230 -458 211 -454.5 Q 192 -451 175.5 -440.5 Q 159 -430 149.5 -413 Q 140 -396 140 -377 L 140 -375 L 62 -375 L 62 -378 Q 62 -401 69 -422.5 Q 76 -444 89 -462.5 Q 102 -481 120.5 -494 Q 139 -507 160.5 -514.5 Q 182 -522 204 -525 Q 226 -528 249 -528 Q 273 -528 297 -524.5 Q 321 -521 343.5 -511 Q 366 -501 384.5 -484.5 Q 403 -468 414.5 -447 Q 426 -426 431 -402 Q 436 -378 436 -354 L 436 0 Z M 358 -70 L 358 -236 L 269 -236 Q 254 -236 238.5 -234.5 Q 223 -233 208.5 -229 Q 194 -225 180.5 -218.5 Q 167 -212 156 -201.5 Q 145 -191 139.5 -177 Q 134 -163 134 -148 Q 134 -134 138.5 -121.5 Q 143 -109 152 -100 Q 161 -91 173 -85 Q 185 -79 198 -75.5 Q 211 -72 224 -71 Q 237 -70 250 -70 Z " id="path1"/>
</defs>
<g>
<g data-source-text="a" fill="#dee4e3" transform="translate(40 104.99201) rotate(0) scale(0.09599999)">
<use href="#path1" transform="translate(0 0)"/>
</g>
</g>
</svg>