<?xml version="1.0" encoding="UTF-8" standalone="no"?>
<svg height="160" viewBox="0 0 128 160" width="128" xmlns="http://www.w3.org/2000/svg">
<defs>
<path d="M 232 8 Q 204 8 177 1 Q 150 -6 127.5 -22.5 Q 105 -39 89 -62 Q 73 -85 64 -111 Q 55 -137 51.5 -165 Q 48 -193 48 -220 Q 48 -248 52.5 -275 Q 57 -302 69 -326.5 Q 81 -351 100.5 -371 Q 120 -391 144 -403.5 Q 168 -416 195.5 -421 Q 223 -426 250 -426 L 276 -426 L 92 -665 L 92 -735 L 442 -735 L 442 -590 L 373 -590 L 373 -665 L 177 -665 L 362 -426 L 362 -356 L 250 -356 Q 233 -356 215.5 -352.5 Q 198 -349 183 -340 Q 168 -331 156.5 -318 Q 145 -305 138 -289 Q 131 -273 128.5 -255.5 Q 126 -238 126 -220 Q 126 -202 127.5 -184 Q 129 -166 134 -148.5 Q 139 -131 147.5 -115 Q 156 -99 169.5 -86.5 Q 183 -74 200.5 -68 Q 218 -62 236 -62 Q 260 -62 282.5 -71 Q 305 -80 320 -99 Q 335 -118 340.5 -141.5 Q 346 -165 346 -189 L 346 -232 L 283 -232 L 283 -294 L 454 -294 L 454 -232 L 415 -232 L 415 -189 Q 415 -164 411 -138.5 Q 407 -113 396.5 -89.5 Q 386 -66 369 -46.5 Q 352 -27 330 -14.5 Q 308 -2 282.5 3 Q 257 8 232 8 Z " id="path1"/>
</defs>
<g>
<g data-source-text="&amp;" fill="#dee4e3" transform="translate(40 104.99201) rotate(0) scale(0.09599999)">
<use href="#path1" transform="translate(0 0)"/>
</g>
</g>
</svg>