<?xml version="1.0" encoding="UTF-8" standalone="no"?>
<svg height="160" viewBox="0 0 128 160" width="128" xmlns="http://www.w3.org/2000/svg">
<defs>
<path d="M 64 -49 L 64 -735 L 142 -735 L 142 -424 Q 150 -447 163.5 -467 Q 177 -487 196 -501 Q 215 -515 238 -521.5 Q 261 -528 285 -528 Q 310 -528 334 -521 Q 358 -514 377.5 -498.5 Q 397 -483 410 -462 Q 423 -441 431 -417.5 Q 439 -394 441.5 -369.5 Q 444 -345 444 -320 L 444 -200 Q 444 -173 439.5 -145.5 Q 435 -118 423.5 -93.5 Q 412 -69 393 -48.5 Q 374 -28 350 -15 Q 326 -2 298.5 3 Q 271 8 244 8 Q 196 8 149.5 -7 Q 103 -22 64 -49 Z M 142 -86 Q 165 -74 191 -68 Q 217 -62 244 -62 Q 261 -62 278.5 -65.5 Q 296 -69 311 -78.5 Q 326 -88 337 -101.5 Q 348 -115 354.5 -131.5 Q 361 -148 363.5 -165.5 Q 366 -183 366 -200 L 366 -320 Q 366 -337 364 -353.5 Q 362 -370 356.5 -386 Q 351 -402 341 -416 Q 331 -430 317.5 -440 Q 304 -450 287.5 -454 Q 271 -458 254 -458 Q 237 -458 220.5 -454 Q 204 -450 190.5 -440 Q 177 -430 167 -416 Q 157 -402 151.5 -386 Q 146 -370 144 -353.5 Q 142 -337 142 -320 Z " id="path1"/>
</defs>
<g>
<g data-source-text="b" fill="#dee4e3" transform="translate(40 104.99201) rotate(0) scale(0.09599999)">
<use href="#path1" transform="translate(0 0)"/>
</g>
</g>
</svg>