<?xml version="1.0" encoding="UTF-8" standalone="no"?>
<svg height="160" viewBox="0 0 128 160" width="128" xmlns="http://www.w3.org/2000/svg">
<defs>
<path d="M 64 0 L 64 -665 L 18 -665 L 18 -735 L 142 -735 L 142 -424 Q 150 -447 163.5 -467 Q 177 -487 196 -501 Q 215 -515 238 -521.5 Q 261 -528 285 -528 Q 310 -528 334 -521 Q 358 -514 377.5 -498.5 Q 397 -483 410 -462 Q 423 -441 431 -417.5 Q 439 -394 441.5 -369.5 Q 444 -345 444 -320 L 444 -200 Q 444 -174 439.5 -147.5 Q 435 -121 424 -97 Q 413 -73 394.5 -53.5 Q 376 -34 352.5 -22 Q 329 -10 302.5 -5 Q 276 -0 250 0 Z M 250 -70 Q 267 -70 283 -73.5 Q 299 -77 313.5 -85.5 Q 328 -94 338.5 -107 Q 349 -120 355.5 -135.5 Q 362 -151 364 -167 Q 366 -183 366 -200 L 366 -320 Q 366 -337 364 -353.5 Q 362 -370 356.5 -386 Q 351 -402 341 -416 Q 331 -430 317.5 -440 Q 304 -450 287.5 -454 Q 271 -458 254 -458 Q 237 -458 220.5 -454 Q 204 -450 190.5 -440 Q 177 -430 167 -416 Q 157 -402 151.5 -386 Q 146 -370 144 -353.5 Q 142 -337 142 -320 L 142 -70 Z " id="path1"/>
</defs>
<g>
<g data-source-text="b" fill="#dee4e3" transform="translate(40 104.99201) rotate(0) scale(0.09599999)">
<use href="#path1" transform="translate(0 0)"/>
</g>
</g>
</svg>