<?xml version="1.0" encoding="UTF-8" standalone="no"?>
<svg height="160" viewBox="0 0 128 160" width="128" xmlns="http://www.w3.org/2000/svg">
<defs>
<path d="M 250 0 Q 224 -0 199 -5 Q 174 -10 151.5 -22 Q 129 -34 111.5 -53 Q 94 -72 83 -95.5 Q 72 -119 68 -144 Q 64 -169 64 -195 L 64 -665 L 18 -665 L 18 -735 L 188 -735 L 188 -665 L 142 -665 L 142 -195 Q 142 -171 147.5 -148 Q 153 -125 167.5 -106.5 Q 182 -88 204 -79 Q 226 -70 250 -70 L 358 -70 L 358 -665 L 312 -665 L 312 -735 L 482 -735 L 482 -665 L 436 -665 L 436 -70 L 482 -70 L 482 0 Z " id="path1"/>
</defs>
<g>
<g data-source-text="U" fill="#dee4e3" transform="translate(40 104.99201) rotate(0) scale(0.09599999)">
<use href="#path1" transform="translate(0 0)"/>
</g>
</g>
</svg>