<?xml version="1.0" encoding="UTF-8" standalone="no"?>
<svg height="160" viewBox="0 0 128 160" width="128" xmlns="http://www.w3.org/2000/svg">
<defs>
<path d="M 64 80 L 133 80 Q 133 93 138.5 105 Q 144 117 153.5 125.5 Q 163 134 175 139.5 Q 187 145 200 148 Q 213 151 225.5 152 Q 238 153 251 153 Q 270 153 288.5 148 Q 307 143 322 131.5 Q 337 120 347.5 104 Q 358 88 364 70.5 Q 370 53 372 34 Q 374 15 374 -3 Q 374 -22 372 -40.5 Q 370 -59 363.5 -76.5 Q 357 -94 346 -109 Q 335 -124 320 -134.5 Q 305 -145 287 -149.5 Q 269 -154 250 -154 L 194 -154 L 194 -224 L 250 -224 Q 272 -224 294 -231.5 Q 316 -239 331 -255 Q 346 -271 352 -293 Q 358 -315 358 -338 Q 358 -362 351.5 -385 Q 345 -408 329.5 -425 Q 314 -442 291 -450 Q 268 -458 245 -458 Q 232 -458 219.5 -457 Q 207 -456 195 -453 Q 183 -450 171.5 -444.5 Q 160 -439 151 -430 Q 142 -421 137.5 -409 Q 133 -397 133 -385 L 64 -385 L 64 -520 L 133 -520 L 133 -470 Q 145 -486 161 -497.5 Q 177 -509 195 -516 Q 213 -523 232.5 -525.5 Q 252 -528 272 -528 Q 295 -528 318.5 -523 Q 342 -518 361.5 -505 Q 381 -492 396 -473.5 Q 411 -455 420 -433 Q 429 -411 432.5 -388 Q 436 -365 436 -341 Q 436 -317 431.5 -294 Q 427 -271 415.5 -250.5 Q 404 -230 386 -214.5 Q 368 -199 346 -189 Q 373 -178 394.5 -158 Q 416 -138 429.5 -112.5 Q 443 -87 447.5 -58 Q 452 -29 452 0 Q 452 26 448.5 52.5 Q 445 79 436.5 104.5 Q 428 130 413.5 153 Q 399 176 378 192 Q 357 208 331 215.5 Q 305 223 278 223 Q 258 223 237.5 220.5 Q 217 218 198 211 Q 179 204 162 192 Q 145 180 133 164 L 133 215 L 64 215 Z " id="path1"/>
</defs>
<g>
<g data-source-text="з" fill="#dee4e3" transform="translate(40 104.99201) rotate(0) scale(0.09599999)">
<use href="#path1" transform="translate(0 0)"/>
</g>
</g>
</svg>