<?xml version="1.0" encoding="UTF-8" standalone="no"?>
<svg height="160" viewBox="0 0 128 160" width="128" xmlns="http://www.w3.org/2000/svg">
<defs>
<path d="M 54 80 L 132 80 Q 133 99 145.5 115 Q 158 131 175.5 139 Q 193 147 212 150 Q 231 153 251 153 Q 270 153 288 148 Q 306 143 321 132 Q 336 121 346.5 105 Q 357 89 363.5 71 Q 370 53 372 34.5 Q 374 16 374 -3 Q 374 -22 372 -40.5 Q 370 -59 363.5 -76.5 Q 357 -94 346 -109 Q 335 -124 320 -134.5 Q 305 -145 287 -149.5 Q 269 -154 250 -154 L 194 -154 L 194 -224 L 250 -224 Q 272 -224 294 -231.5 Q 316 -239 331 -255 Q 346 -271 352 -293 Q 358 -315 358 -337 L 358 -338 Q 358 -361 351.5 -384.5 Q 345 -408 328.5 -425.5 Q 312 -443 288.5 -450.5 Q 265 -458 242 -458 Q 213 -458 185.5 -450.5 Q 158 -443 133 -429 L 133 -385 L 64 -385 L 64 -471 Q 102 -498 148 -513 Q 194 -528 241 -528 Q 267 -528 292.5 -523.5 Q 318 -519 341 -508 Q 364 -497 383 -479 Q 402 -461 414 -438.5 Q 426 -416 431 -390.5 Q 436 -365 436 -339 Q 436 -316 431.5 -293 Q 427 -270 415.5 -249.5 Q 404 -229 386 -214 Q 368 -199 346 -189 Q 373 -178 394.5 -158 Q 416 -138 429 -112.5 Q 442 -87 447 -58.5 Q 452 -30 452 -2 Q 452 27 447.5 55.5 Q 443 84 432 110 Q 421 136 402.5 158.5 Q 384 181 360 196 Q 336 211 307.5 217 Q 279 223 251 223 Q 228 223 205.5 220.5 Q 183 218 161.5 211 Q 140 204 120.5 192 Q 101 180 86.5 162.5 Q 72 145 63.5 124 Q 55 103 54 80 Z " id="path1"/>
</defs>
<g>
<g data-source-text="з" fill="#dee4e3" transform="translate(40 104.99201) rotate(0) scale(0.09599999)">
<use href="#path1" transform="translate(0 0)"/>
</g>
</g>
</svg>