<?xml version="1.0" encoding="UTF-8" standalone="no"?>
<svg height="160" viewBox="0 0 128 160" width="128" xmlns="http://www.w3.org/2000/svg">
<defs>
<path d="M 54 80 L 132 80 Q 133 99 145.5 115 Q 158 131 175.5 139 Q 193 147 212 150 Q 231 153 251 153 Q 270 153 288 148 Q 306 143 321 132 Q 336 121 346.5 105 Q 357 89 363.5 71 Q 370 53 372 34.5 Q 374 16 374 -3 Q 374 -22 372 -40.5 Q 370 -59 363.5 -76.5 Q 357 -94 346 -109 Q 335 -124 320 -134.5 Q 305 -145 287 -149.5 Q 269 -154 250 -154 L 194 -154 L 194 -224 L 250 -224 Q 272 -224 294 -231.5 Q 316 -239 331 -255 Q 346 -271 352 -293 Q 358 -315 358 -338 Q 358 -362 351.5 -385 Q 345 -408 329.5 -425 Q 314 -442 291 -450 Q 268 -458 245 -458 Q 232 -458 219.5 -457 Q 207 -456 195 -453 Q 183 -450 171.5 -444.5 Q 160 -439 151 -430 Q 142 -421 137.5 -409 Q 133 -397 133 -385 L 64 -385 L 64 -520 L 133 -520 L 133 -470 Q 145 -486 161 -497.5 Q 177 -509 195 -516 Q 213 -523 232.5 -525.5 Q 252 -528 272 -528 Q 295 -528 318.5 -523 Q 342 -518 361.5 -505 Q 381 -492 396 -473.5 Q 411 -455 420 -433 Q 429 -411 432.5 -388 Q 436 -365 436 -341 Q 436 -317 431.5 -294 Q 427 -271 415.5 -250.5 Q 404 -230 386 -214.5 Q 368 -199 346 -189 Q 373 -178 394.5 -158 Q 416 -138 429 -112.5 Q 442 -87 447 -58.5 Q 452 -30 452 -2 Q 452 27 447.5 55.5 Q 443 84 432 110 Q 421 136 402.5 158.5 Q 384 181 360 196 Q 336 211 307.5 217 Q 279 223 251 223 Q 228 223 205.5 220.5 Q 183 218 161.5 211 Q 140 204 120.5 192 Q 101 180 86.5 162.5 Q 72 145 63.5 124 Q 55 103 54 80 Z " id="path1"/>
</defs>
<g>
<g data-source-text="з" fill="#dee4e3" transform="translate(40 104.99201) rotate(0) scale(0.09599999)">
<use href="#path1" transform="translate(0 0)"/>
</g>
</g>
</svg>