<?xml version="1.0" encoding="UTF-8" standalone="no"?>
<svg height="160" viewBox="0 0 128 160" width="128" xmlns="http://www.w3.org/2000/svg">
<defs>
<path d="M 251 8 Q 228 8 204.5 5.5 Q 181 3 159 -4 Q 137 -11 117 -23.5 Q 97 -36 83 -54 Q 69 -72 62.5 -95 Q 56 -118 56 -141 Q 56 -166 63 -191 Q 70 -216 85.5 -236 Q 101 -256 123 -270 Q 145 -284 169 -292 Q 193 -300 218 -303 Q 243 -306 269 -306 L 358 -306 L 358 -354 Q 358 -375 351 -396 Q 344 -417 328.5 -431.5 Q 313 -446 291.5 -452 Q 270 -458 249 -458 Q 230 -458 211 -454.5 Q 192 -451 175.5 -440.5 Q 159 -430 149.5 -413 Q 140 -396 140 -377 L 140 -375 L 62 -375 L 62 -378 Q 62 -401 69 -422.5 Q 76 -444 89 -462.5 Q 102 -481 120.5 -494 Q 139 -507 160.5 -514.5 Q 182 -522 204 -525 Q 226 -528 249 -528 Q 273 -528 297 -524.5 Q 321 -521 343.5 -511 Q 366 -501 384.5 -484.5 Q 403 -468 414.5 -447 Q 426 -426 431 -402 Q 436 -378 436 -354 L 436 -49 Q 395 -22 347.5 -7 Q 300 8 251 8 Z M 251 -62 Q 279 -62 306 -68.5 Q 333 -75 358 -87 L 358 -236 L 269 -236 Q 253 -236 238 -234.5 Q 223 -233 208.5 -229 Q 194 -225 180 -218.5 Q 166 -212 155.5 -201.5 Q 145 -191 139.5 -176.5 Q 134 -162 134 -147 Q 134 -133 138 -120 Q 142 -107 151 -96.5 Q 160 -86 172 -79.5 Q 184 -73 197 -69 Q 210 -65 223.5 -63.5 Q 237 -62 251 -62 Z " id="path1"/>
</defs>
<g>
<g data-source-text="а" fill="#dee4e3" transform="translate(40 104.99201) rotate(0) scale(0.09599999)">
<use href="#path1" transform="translate(0 0)"/>
</g>
</g>
</svg>