<?xml version="1.0" encoding="UTF-8" standalone="no"?>
<svg height="160" viewBox="0 0 128 160" width="128" xmlns="http://www.w3.org/2000/svg">
<defs>
<path d="M 105 0 L 105 -70 L 172 -70 L 172 -74 Q 172 -120 180.5 -166.5 Q 189 -213 208 -256 L 94 -506 Q 77 -543 70.5 -582.5 Q 64 -622 64 -662 L 64 -665 L 18 -665 L 18 -735 L 188 -735 L 188 -665 L 142 -665 L 142 -662 Q 142 -629 147 -597 Q 152 -565 165 -535 L 248 -344 L 336 -535 Q 349 -565 353.5 -597 Q 358 -629 358 -662 L 358 -665 L 312 -665 L 312 -735 L 482 -735 L 482 -665 L 436 -665 L 436 -662 Q 436 -622 429.5 -582.5 Q 423 -543 406 -506 L 280 -229 Q 275 -218 271 -207.5 Q 267 -197 264 -186 Q 256 -158 253 -130 Q 250 -102 250 -74 L 250 0 Z " id="path1"/>
</defs>
<g>
<g data-source-text="У" fill="#20242e" transform="translate(40 104.99201) rotate(0) scale(0.09599999)">
<use href="#path1" transform="translate(0 0)"/>
</g>
</g>
</svg>