<?xml version="1.0" encoding="UTF-8" standalone="no"?>
<svg height="160" viewBox="0 0 128 160" width="128" xmlns="http://www.w3.org/2000/svg">
<defs>
<path d="M 74 0 L 74 -70 L 127 -70 Q 138 -70 149 -73.5 Q 160 -77 167 -85.5 Q 174 -94 178 -104.5 Q 182 -115 186 -125 L 209 -190 L 94 -509 Q 81 -546 72.5 -584.5 Q 64 -623 64 -662 L 64 -665 L 18 -665 L 18 -735 L 188 -735 L 188 -665 L 142 -665 L 142 -662 Q 142 -628 149 -596 Q 156 -564 167 -533 L 250 -292 L 333 -533 Q 344 -564 351 -596 Q 358 -628 358 -662 L 358 -665 L 312 -665 L 312 -735 L 482 -735 L 482 -665 L 436 -665 L 436 -662 Q 436 -623 427.5 -584.5 Q 419 -546 406 -509 L 259 -102 Q 251 -80 241 -59 Q 231 -38 213 -23.5 Q 195 -9 172.5 -4.5 Q 150 -0 127 0 Z " id="path1"/>
</defs>
<g>
<g data-source-text="У" fill="#dee4e3" transform="translate(40 104.99201) rotate(0) scale(0.09599999)">
<use href="#path1" transform="translate(0 0)"/>
</g>
</g>
</svg>