<?xml version="1.0" encoding="UTF-8" standalone="no"?>
<svg height="160" viewBox="0 0 128 160" width="128" xmlns="http://www.w3.org/2000/svg">
<defs>
<path d="M 164 104 L 209 -13 L 98 -301 Q 84 -336 74 -372.5 Q 64 -409 64 -447 L 64 -450 L 18 -450 L 18 -520 L 142 -520 L 142 -447 Q 142 -431 144.5 -415.5 Q 147 -400 151 -385 Q 155 -370 160 -355.5 Q 165 -341 170 -326 L 248 -115 L 330 -327 Q 341 -356 349.5 -386 Q 358 -416 358 -447 L 358 -520 L 436 -520 L 436 -447 Q 436 -409 426 -372.5 Q 416 -336 402 -301 L 260 68 L 236 129 Q 229 148 227.5 168 Q 226 188 226 208 L 226 215 L 148 215 L 148 208 Q 148 181 151 155 Q 154 129 164 104 Z " id="path1"/>
</defs>
<g>
<g data-source-text="у" fill="#dee4e3" transform="translate(40 104.99201) rotate(0) scale(0.09599999)">
<use href="#path1" transform="translate(0 0)"/>
</g>
</g>
</svg>