<?xml version="1.0" encoding="UTF-8" standalone="no"?>
<svg height="160" viewBox="0 0 128 160" width="128" xmlns="http://www.w3.org/2000/svg">
<defs>
<path d="M 54 80 L 132 80 Q 133 99 145.5 115 Q 158 131 175.5 139 Q 193 147 212 150 Q 231 153 251 153 Q 270 153 288 148 Q 306 143 321 132 Q 336 121 346.5 105 Q 357 89 363.5 71 Q 370 53 372 34.5 Q 374 16 374 -3 Q 374 -22 372 -40.5 Q 370 -59 363.5 -76.5 Q 357 -94 346 -109 Q 335 -124 320 -134.5 Q 305 -145 287 -149.5 Q 269 -154 250 -154 L 194 -154 L 194 -224 L 250 -224 Q 272 -224 294 -231.5 Q 316 -239 331 -255.5 Q 346 -272 352 -294 Q 358 -316 358 -339 Q 358 -362 352.5 -384 Q 347 -406 332.5 -423.5 Q 318 -441 296.5 -449.5 Q 275 -458 252 -458 Q 234 -458 216.5 -455 Q 199 -452 183.5 -443 Q 168 -434 158 -418.5 Q 148 -403 148 -385 L 70 -385 Q 70 -407 77 -428 Q 84 -449 97 -466 Q 110 -483 128 -495.5 Q 146 -508 166.5 -515.5 Q 187 -523 209 -525.5 Q 231 -528 252 -528 Q 277 -528 301.5 -523.5 Q 326 -519 348 -507.5 Q 370 -496 387.5 -477.5 Q 405 -459 416 -437 Q 427 -415 431.5 -390 Q 436 -365 436 -340 Q 436 -317 431.5 -293.5 Q 427 -270 415.5 -250 Q 404 -230 386 -214.5 Q 368 -199 346 -189 Q 373 -178 394.5 -158 Q 416 -138 429 -112.5 Q 442 -87 447 -58.5 Q 452 -30 452 -2 Q 452 27 447.5 55.5 Q 443 84 432 110 Q 421 136 402.5 158.5 Q 384 181 360 196 Q 336 211 307.5 217 Q 279 223 251 223 Q 228 223 205.5 220.5 Q 183 218 161.5 211 Q 140 204 120.5 192 Q 101 180 86.5 162.5 Q 72 145 63.5 124 Q 55 103 54 80 Z " id="path1"/>
</defs>
<g>
<g data-source-text="з" fill="#dee4e3" transform="translate(40 104.99201) rotate(0) scale(0.09599999)">
<use href="#path1" transform="translate(0 0)"/>
</g>
</g>
</svg>