<?xml version="1.0" encoding="UTF-8" standalone="no"?>
<svg height="160" viewBox="0 0 128 160" width="128" xmlns="http://www.w3.org/2000/svg">
<defs>
<path d="M 250 0 Q 224 -0 198 -4.5 Q 172 -9 149 -21 Q 126 -33 107 -51.5 Q 88 -70 76.5 -93.5 Q 65 -117 60.5 -143 Q 56 -169 56 -195 L 56 -540 Q 56 -567 60.5 -594 Q 65 -621 77 -645 Q 89 -669 108 -689 Q 127 -709 151 -721 Q 175 -733 202 -738 Q 229 -743 256 -743 Q 304 -743 350.5 -728 Q 397 -713 436 -686 L 436 -555 L 367 -555 L 367 -644 Q 341 -658 313 -665.5 Q 285 -673 256 -673 Q 239 -673 222 -669.5 Q 205 -666 190 -657.5 Q 175 -649 163.5 -635.5 Q 152 -622 145.5 -606.5 Q 139 -591 136.5 -574 Q 134 -557 134 -540 L 134 -195 Q 134 -179 136.5 -163 Q 139 -147 145.5 -132 Q 152 -117 163 -104.5 Q 174 -92 188 -84 Q 202 -76 218 -73 Q 234 -70 250 -70 L 358 -70 L 358 -330 L 250 -330 L 250 -400 L 436 -400 L 436 0 Z " id="path1"/>
</defs>
<g>
<g data-source-text="G" fill="#dee4e3" transform="translate(40 104.99201) rotate(0) scale(0.09599999)">
<use href="#path1" transform="translate(0 0)"/>
</g>
</g>
</svg>