<?xml version="1.0" encoding="UTF-8" standalone="no"?>
<svg height="160" viewBox="0 0 128 160" width="128" xmlns="http://www.w3.org/2000/svg">
<defs>
<path d="M 76 215 L 76 145 L 129 145 Q 140 145 150.5 142 Q 161 139 168.5 130.5 Q 176 122 180 111.5 Q 184 101 187 91 L 209 26 L 93 -319 Q 88 -334 83.5 -350 Q 79 -366 74.5 -382 Q 70 -398 67 -414 Q 64 -430 64 -447 L 64 -450 L 18 -450 L 18 -520 L 142 -520 L 142 -447 Q 142 -424 148 -402 Q 154 -380 161 -359 L 161 -358 Q 162 -356 162.5 -353.5 Q 163 -351 164 -349 L 165 -348 Q 165 -346 166 -344 Q 167 -342 167 -340 L 250 -84 L 333 -340 Q 334 -345 335.5 -349 Q 337 -353 339 -358 Q 346 -379 352 -401.5 Q 358 -424 358 -447 L 358 -520 L 436 -520 L 436 -447 Q 436 -430 433 -414 Q 430 -398 425.5 -382 Q 421 -366 416.5 -350 Q 412 -334 407 -319 L 261 113 Q 254 135 243.5 156 Q 233 177 215.5 191.5 Q 198 206 175 210.5 Q 152 215 129 215 Z " id="path1"/>
</defs>
<g>
<g data-source-text="у" fill="#dee4e3" transform="translate(40 104.99201) rotate(0) scale(0.09599999)">
<use href="#path1" transform="translate(0 0)"/>
</g>
</g>
</svg>