<?xml version="1.0" encoding="UTF-8" standalone="no"?>
<svg height="160" viewBox="0 0 128 160" width="128" xmlns="http://www.w3.org/2000/svg">
<defs>
<path d="M 64 80 L 133 80 L 133 124 Q 159 138 188 145.5 Q 217 153 246 153 Q 265 153 284 148.5 Q 303 144 318.5 132.5 Q 334 121 345 105 Q 356 89 362.5 71 Q 369 53 371.5 34 Q 374 15 374 -4 Q 374 -23 372 -41.5 Q 370 -60 363.5 -77 Q 357 -94 346 -109.5 Q 335 -125 320 -135 Q 305 -145 286.5 -149.5 Q 268 -154 250 -154 L 194 -154 L 194 -224 L 250 -224 Q 272 -224 294 -231.5 Q 316 -239 331 -255 Q 346 -271 352 -293 Q 358 -315 358 -337 L 358 -338 Q 358 -361 351.5 -384.5 Q 345 -408 328.5 -425.5 Q 312 -443 288.5 -450.5 Q 265 -458 242 -458 Q 213 -458 185.5 -450.5 Q 158 -443 133 -429 L 133 -385 L 64 -385 L 64 -471 Q 102 -498 148 -513 Q 194 -528 241 -528 Q 267 -528 292.5 -523.5 Q 318 -519 341 -508 Q 364 -497 383 -479 Q 402 -461 414 -438.5 Q 426 -416 431 -390.5 Q 436 -365 436 -339 Q 436 -316 431.5 -293 Q 427 -270 415.5 -249.5 Q 404 -229 386 -214 Q 368 -199 346 -189 Q 373 -178 394 -158 Q 415 -138 428.5 -113 Q 442 -88 447 -59.5 Q 452 -31 452 -2 Q 452 26 447.5 55 Q 443 84 431.5 110.5 Q 420 137 401 159.5 Q 382 182 357 196.5 Q 332 211 303.5 217 Q 275 223 246 223 Q 198 223 151 208 Q 104 193 64 166 Z " id="path1"/>
</defs>
<g>
<g data-source-text="з" fill="#dee4e3" transform="translate(40 104.99201) rotate(0) scale(0.09599999)">
<use href="#path1" transform="translate(0 0)"/>
</g>
</g>
</svg>