<?xml version="1.0" encoding="UTF-8" standalone="no"?>
<svg height="160" viewBox="0 0 128 160" width="128" xmlns="http://www.w3.org/2000/svg">
<defs>
<path d="M 16 0 L 16 -70 Q 30 -70 43 -76 Q 56 -82 64.5 -93 Q 73 -104 77.5 -117.5 Q 82 -131 84.5 -145 Q 87 -159 88.5 -173 Q 90 -187 91 -201 Q 92 -215 92 -229 Q 92 -243 92 -257 L 92 -520 L 436 -520 L 436 0 L 358 0 L 358 -450 L 170 -450 L 170 -259 Q 170 -237 169.5 -215.5 Q 169 -194 167 -172.5 Q 165 -151 161 -129.5 Q 157 -108 149.5 -87.5 Q 142 -67 130 -49 Q 118 -31 99.5 -19.5 Q 81 -8 59.5 -4 Q 38 -0 16 0 Z " id="path1"/>
</defs>
<g>
<g data-source-text="л" fill="#20242e" transform="translate(40 104.99201) rotate(0) scale(0.09599999)">
<use href="#path1" transform="translate(0 0)"/>
</g>
</g>
</svg>