<?xml version="1.0" encoding="UTF-8" standalone="no"?>
<svg height="160" viewBox="0 0 128 160" width="128" xmlns="http://www.w3.org/2000/svg">
<defs>
<path d="M 64 80 L 133 80 L 133 124 Q 159 138 188 145.5 Q 217 153 246 153 Q 265 153 284 148.5 Q 303 144 318.5 132.5 Q 334 121 345 105 Q 356 89 362.5 71 Q 369 53 371.5 34 Q 374 15 374 -4 Q 374 -23 372 -41.5 Q 370 -60 363.5 -77 Q 357 -94 346 -109.5 Q 335 -125 320 -135 Q 305 -145 286.5 -149.5 Q 268 -154 250 -154 L 194 -154 L 194 -224 L 250 -224 Q 272 -224 294 -231.5 Q 316 -239 331 -255.5 Q 346 -272 352 -294 Q 358 -316 358 -339 Q 358 -362 352.5 -384 Q 347 -406 332.5 -423.5 Q 318 -441 296.5 -449.5 Q 275 -458 252 -458 Q 234 -458 216.5 -455 Q 199 -452 183.5 -443 Q 168 -434 158 -418.5 Q 148 -403 148 -385 L 70 -385 Q 70 -407 77 -428 Q 84 -449 97 -466 Q 110 -483 128 -495.5 Q 146 -508 166.5 -515.5 Q 187 -523 209 -525.5 Q 231 -528 252 -528 Q 277 -528 301.5 -523.5 Q 326 -519 348 -507.5 Q 370 -496 387.5 -477.5 Q 405 -459 416 -437 Q 427 -415 431.5 -390 Q 436 -365 436 -340 Q 436 -317 431.5 -293.5 Q 427 -270 415.5 -250 Q 404 -230 386 -214.5 Q 368 -199 346 -189 Q 373 -178 394 -158 Q 415 -138 428.5 -113 Q 442 -88 447 -59.5 Q 452 -31 452 -2 Q 452 26 447.5 55 Q 443 84 431.5 110.5 Q 420 137 401 159.5 Q 382 182 357 196.5 Q 332 211 303.5 217 Q 275 223 246 223 Q 198 223 151 208 Q 104 193 64 166 Z " id="path1"/>
</defs>
<g>
<g data-source-text="з" fill="#20242e" transform="translate(40 104.99201) rotate(0) scale(0.09599999)">
<use href="#path1" transform="translate(0 0)"/>
</g>
</g>
</svg>