<?xml version="1.0" encoding="UTF-8" standalone="no"?>
<svg height="160" viewBox="0 0 128 160" width="128" xmlns="http://www.w3.org/2000/svg">
<defs>
<path d="M 105 215 L 105 145 L 172 145 L 172 141 Q 172 95 180.5 48.5 Q 189 2 208 -41 L 94 -291 Q 77 -328 70.5 -367.5 Q 64 -407 64 -447 L 64 -450 L 18 -450 L 18 -520 L 188 -520 L 188 -450 L 142 -450 L 142 -447 Q 142 -414 147 -382 Q 152 -350 165 -320 L 248 -129 L 336 -320 Q 349 -350 353.5 -382 Q 358 -414 358 -447 L 358 -450 L 312 -450 L 312 -520 L 482 -520 L 482 -450 L 436 -450 L 436 -447 Q 436 -407 429.5 -367.5 Q 423 -328 406 -291 L 280 -14 Q 275 -3 271 7.5 Q 267 18 264 29 Q 256 57 253 85 Q 250 113 250 141 L 250 215 Z " id="path1"/>
</defs>
<g>
<g data-source-text="у" fill="#20242e" transform="translate(40 104.99201) rotate(0) scale(0.09599999)">
<use href="#path1" transform="translate(0 0)"/>
</g>
</g>
</svg>