<?xml version="1.0" encoding="UTF-8" standalone="no"?>
<svg height="160" viewBox="0 0 128 160" width="128" xmlns="http://www.w3.org/2000/svg">
<defs>
<path d="M 76 0 L 76 -70 L 129 -70 Q 140 -70 150.5 -73 Q 161 -76 168.5 -84.5 Q 176 -93 180 -103.5 Q 184 -114 187 -124 L 209 -189 L 93 -534 Q 88 -549 83.5 -565 Q 79 -581 74.5 -597 Q 70 -613 67 -629 Q 64 -645 64 -662 L 64 -735 L 142 -735 L 142 -662 Q 142 -639 148 -617 Q 154 -595 161 -574 L 161 -573 Q 162 -571 162.5 -568.5 Q 163 -566 164 -564 L 165 -563 Q 165 -561 166 -559 Q 167 -557 167 -555 L 250 -299 L 333 -555 Q 334 -560 335.5 -564 Q 337 -568 339 -573 Q 346 -594 352 -616.5 Q 358 -639 358 -662 L 358 -735 L 436 -735 L 436 -662 Q 436 -645 433 -629 Q 430 -613 425.5 -597 Q 421 -581 416.5 -565 Q 412 -549 407 -534 L 261 -102 Q 254 -80 243.5 -59 Q 233 -38 215.5 -23.5 Q 198 -9 175 -4.5 Q 152 -0 129 0 Z " id="path1"/>
</defs>
<g>
<g data-source-text="У" fill="#dee4e3" transform="translate(40 104.99201) rotate(0) scale(0.09599999)">
<use href="#path1" transform="translate(0 0)"/>
</g>
</g>
</svg>