<?xml version="1.0" encoding="UTF-8" standalone="no"?>
<svg height="160" viewBox="0 0 128 160" width="128" xmlns="http://www.w3.org/2000/svg">
<defs>
<path d="M 256 8 Q 229 8 201.5 3 Q 174 -2 150 -15 Q 126 -28 107 -48.5 Q 88 -69 76.5 -93.5 Q 65 -118 60.5 -145.5 Q 56 -173 56 -200 L 56 -320 Q 56 -345 58.5 -369.5 Q 61 -394 69 -417.5 Q 77 -441 90 -462 Q 103 -483 122.5 -498.5 Q 142 -514 166 -521 Q 190 -528 215 -528 Q 239 -528 262 -521.5 Q 285 -515 304 -501 Q 323 -487 336.5 -467 Q 350 -447 358 -424 L 358 -665 L 312 -665 L 312 -735 L 436 -735 L 436 -49 Q 397 -22 350.5 -7 Q 304 8 256 8 Z M 256 -62 Q 283 -62 309 -68 Q 335 -74 358 -86 L 358 -320 Q 358 -337 356 -353.5 Q 354 -370 348.5 -386 Q 343 -402 333 -416 Q 323 -430 309.5 -440 Q 296 -450 279.5 -454 Q 263 -458 246 -458 Q 229 -458 212.5 -454 Q 196 -450 182.5 -440 Q 169 -430 159 -416 Q 149 -402 143.5 -386 Q 138 -370 136 -353.5 Q 134 -337 134 -320 L 134 -200 Q 134 -183 136.5 -165.5 Q 139 -148 145.5 -131.5 Q 152 -115 163 -101.5 Q 174 -88 189 -78.5 Q 204 -69 221.5 -65.5 Q 239 -62 256 -62 Z " id="path1"/>
</defs>
<g>
<g data-source-text="d" fill="#dee4e3" transform="translate(40 104.99201) rotate(0) scale(0.09599999)">
<use href="#path1" transform="translate(0 0)"/>
</g>
</g>
</svg>