<?xml version="1.0" encoding="UTF-8" standalone="no"?>
<svg height="160" viewBox="0 0 128 160" width="128" xmlns="http://www.w3.org/2000/svg">
<defs>
<path d="M 332 8 Q 311 8 290.5 3 Q 270 -2 252.5 -13.5 Q 235 -25 222.5 -42 Q 210 -59 202.5 -78.5 Q 195 -98 192 -118.5 Q 189 -139 189 -160 L 189 -450 L 53 -450 L 53 -520 L 267 -520 L 267 -160 Q 267 -143 269.5 -126.5 Q 272 -110 280 -95 Q 288 -80 303 -71 Q 318 -62 335 -62 Q 352 -62 366.5 -71.5 Q 381 -81 389 -96.5 Q 397 -112 400 -128.5 Q 403 -145 403 -162 L 403 -168 L 475 -168 L 475 -159 Q 475 -138 471.5 -117.5 Q 468 -97 460.5 -78 Q 453 -59 440.5 -42 Q 428 -25 411 -13.5 Q 394 -2 373.5 3 Q 353 8 332 8 Z M 234 -608 Q 221 -608 209 -611.5 Q 197 -615 188 -624 Q 179 -633 175.5 -645 Q 172 -657 172 -670 Q 172 -683 175.5 -695 Q 179 -707 188 -716 Q 197 -725 209 -729 Q 221 -733 234 -733 Q 247 -733 259 -729 Q 271 -725 280 -716 Q 289 -707 293 -695 Q 297 -683 297 -670 Q 297 -657 293 -645 Q 289 -633 280 -624 Q 271 -615 259 -611.5 Q 247 -608 234 -608 Z " id="path1"/>
</defs>
<g>
<g data-source-text="i" fill="#20242e" transform="translate(40 104.99201) rotate(0) scale(0.09599999)">
<use href="#path1" transform="translate(0 0)"/>
</g>
</g>
</svg>