<?xml version="1.0" encoding="UTF-8" standalone="no"?>
<svg height="160" viewBox="0 0 128 160" width="128" xmlns="http://www.w3.org/2000/svg">
<defs>
<path d="M 275 8 Q 258 8 241.5 3.5 Q 225 -1 213 -12.5 Q 201 -24 195 -40 Q 189 -56 189 -73 L 189 -520 L 267 -520 L 267 -73 Q 267 -68 268.5 -62.5 Q 270 -57 275 -57 Q 277 -57 278.5 -57.5 Q 280 -58 281 -59 L 402 -176 L 453 -129 L 331 -12 Q 320 -2 305.5 3 Q 291 8 275 8 Z M 228 -608 Q 215 -608 203 -611.5 Q 191 -615 182 -624 Q 173 -633 169.5 -645 Q 166 -657 166 -670 Q 166 -683 169.5 -695 Q 173 -707 182 -716 Q 191 -725 203 -729 Q 215 -733 228 -733 Q 241 -733 253 -729 Q 265 -725 274 -716 Q 283 -707 287 -695 Q 291 -683 291 -670 Q 291 -657 287 -645 Q 283 -633 274 -624 Q 265 -615 253 -611.5 Q 241 -608 228 -608 Z " id="path1"/>
</defs>
<g>
<g data-source-text="i" fill="#dee4e3" transform="translate(40 104.99201) rotate(0) scale(0.09599999)">
<use href="#path1" transform="translate(0 0)"/>
</g>
</g>
</svg>