<?xml version="1.0" encoding="UTF-8" standalone="no"?>
<svg height="160" viewBox="0 0 128 160" width="128" xmlns="http://www.w3.org/2000/svg">
<defs>
<path d="M 64 0 L 64 -26 Q 64 -46 71 -65 Q 78 -84 87.5 -102 Q 97 -120 108 -137 Q 119 -154 131 -169 L 208 -267 L 152 -388 Q 145 -401 138 -414 Q 131 -427 119.5 -436.5 Q 108 -446 93.5 -448 Q 79 -450 64 -450 L 64 -520 Q 81 -520 98 -519 Q 115 -518 131.5 -513 Q 148 -508 161.5 -497.5 Q 175 -487 185.5 -474 Q 196 -461 204.5 -446 Q 213 -431 220 -416 L 258 -330 L 308 -394 Q 317 -405 325.5 -416.5 Q 334 -428 341 -440.5 Q 348 -453 353 -466.5 Q 358 -480 358 -494 L 358 -520 L 436 -520 L 436 -494 Q 436 -474 429 -455 Q 422 -436 412.5 -418 Q 403 -400 392 -383 Q 381 -366 369 -351 L 292 -253 L 348 -132 Q 355 -119 362 -106 Q 369 -93 380.5 -83.5 Q 392 -74 406.5 -72 Q 421 -70 436 -70 L 436 0 Q 419 -0 402 -1 Q 385 -2 368.5 -7 Q 352 -12 338.5 -22.5 Q 325 -33 314.5 -46 Q 304 -59 295.5 -74 Q 287 -89 280 -104 L 242 -190 L 192 -126 Q 183 -115 174.5 -103.5 Q 166 -92 159 -79.5 Q 152 -67 147 -53.5 Q 142 -40 142 -26 L 142 0 Z " id="path1"/>
</defs>
<g>
<g data-source-text="χ" fill="#20242e" transform="translate(40 104.99201) rotate(0) scale(0.09599999)">
<use href="#path1" transform="translate(0 0)"/>
</g>
</g>
</svg>