<?xml version="1.0" encoding="UTF-8" standalone="no"?>
<svg height="160" viewBox="0 0 128 160" width="128" xmlns="http://www.w3.org/2000/svg">
<defs>
<path d="M 332 8 Q 311 8 290.5 3 Q 270 -2 252.5 -13.5 Q 235 -25 222.5 -42 Q 210 -59 202.5 -78.5 Q 195 -98 192 -118.5 Q 189 -139 189 -160 L 189 -735 L 267 -735 L 267 -160 Q 267 -143 269.5 -126.5 Q 272 -110 280 -95 Q 288 -80 303 -71 Q 318 -62 335 -62 Q 352 -62 366.5 -71.5 Q 381 -81 389 -96.5 Q 397 -112 400 -128.5 Q 403 -145 403 -162 L 403 -168 L 475 -168 L 475 -159 Q 475 -138 471.5 -117.5 Q 468 -97 460.5 -78 Q 453 -59 440.5 -42 Q 428 -25 411 -13.5 Q 394 -2 373.5 3 Q 353 8 332 8 Z " id="path1"/>
</defs>
<g>
<g data-source-text="l" fill="#dee4e3" transform="translate(40 104.99201) rotate(0) scale(0.09599999)">
<use href="#path1" transform="translate(0 0)"/>
</g>
</g>
</svg>