<?xml version="1.0" encoding="UTF-8" standalone="no"?>
<svg height="160" viewBox="0 0 128 160" width="128" xmlns="http://www.w3.org/2000/svg">
<defs>
<path d="M 49 215 L 212 -154 L 150 -343 Q 146 -355 142.5 -367 Q 139 -379 135 -391 Q 131 -403 125.5 -415 Q 120 -427 111 -435.5 Q 102 -444 89.5 -447 Q 77 -450 64 -450 L 64 -520 Q 84 -520 104.5 -517 Q 125 -514 142.5 -503.5 Q 160 -493 171.5 -475.5 Q 183 -458 192 -439.5 Q 201 -421 208 -402 Q 215 -383 221 -363 L 255 -256 L 366 -520 L 451 -520 L 288 -151 L 350 38 Q 354 50 357.5 62 Q 361 74 365 86 Q 369 98 374.5 110 Q 380 122 389 130.5 Q 398 139 410.5 142 Q 423 145 436 145 L 436 215 Q 416 215 395.5 212 Q 375 209 357.5 198.5 Q 340 188 328.5 170.5 Q 317 153 308 134.5 Q 299 116 292 97 Q 285 78 279 58 L 245 -49 L 134 215 Z " id="path1"/>
</defs>
<g>
<g data-source-text="χ" fill="#dee4e3" transform="translate(40 104.99201) rotate(0) scale(0.09599999)">
<use href="#path1" transform="translate(0 0)"/>
</g>
</g>
</svg>