<?xml version="1.0" encoding="UTF-8" standalone="no"?>
<svg height="160" viewBox="0 0 128 160" width="128" xmlns="http://www.w3.org/2000/svg">
<defs>
<path d="M 275 8 Q 258 8 241.5 3.5 Q 225 -1 213 -12.5 Q 201 -24 195 -40 Q 189 -56 189 -73 L 189 -735 L 267 -735 L 267 -73 Q 267 -68 268.5 -62.5 Q 270 -57 275 -57 Q 277 -57 278.5 -57.5 Q 280 -58 281 -59 L 402 -176 L 453 -129 L 331 -12 Q 320 -2 305.5 3 Q 291 8 275 8 Z " id="path1"/>
</defs>
<g>
<g data-source-text="l" fill="#20242e" transform="translate(40 104.99201) rotate(0) scale(0.09599999)">
<use href="#path1" transform="translate(0 0)"/>
</g>
</g>
</svg>