<?xml version="1.0" encoding="UTF-8" standalone="no"?>
<svg height="160" viewBox="0 0 128 160" width="128" xmlns="http://www.w3.org/2000/svg">
<defs>
<path d="M 358 73 Q 358 56 351 41 Q 344 26 330.5 16.5 Q 317 7 301 3.5 Q 285 0 269 0 Q 253 -0 236.5 -1 Q 220 -2 204 -4.5 Q 188 -7 172.5 -11.5 Q 157 -16 142.5 -23 Q 128 -30 114.5 -39.5 Q 101 -49 90 -61 Q 79 -73 70.5 -87 Q 62 -101 57 -116.5 Q 52 -132 50 -148 Q 48 -164 48 -180 Q 48 -213 55.5 -244.5 Q 63 -276 81 -303 Q 99 -330 125 -350 Q 151 -370 182 -381 Q 156 -390 133 -406 Q 110 -422 94 -444.5 Q 78 -467 71 -494 Q 64 -521 64 -549 Q 64 -574 68 -599.5 Q 72 -625 82.5 -648 Q 93 -671 110 -690 Q 127 -709 149.5 -721 Q 172 -733 197 -738 Q 222 -743 247 -743 Q 271 -743 295 -738.5 Q 319 -734 340.5 -723.5 Q 362 -713 379.5 -695.5 Q 397 -678 408 -656.5 Q 419 -635 424.5 -611 Q 430 -587 430 -563 L 430 -555 L 352 -555 L 352 -560 Q 352 -582 345.5 -603.5 Q 339 -625 325 -641.5 Q 311 -658 290 -665.5 Q 269 -673 247 -673 Q 224 -673 202 -664 Q 180 -655 166 -636.5 Q 152 -618 147 -595 Q 142 -572 142 -549 Q 142 -529 146.5 -510 Q 151 -491 161.5 -475 Q 172 -459 187.5 -447 Q 203 -435 221 -428 Q 239 -421 258 -418.5 Q 277 -416 297 -416 L 343 -416 L 343 -346 L 297 -346 Q 274 -346 251.5 -342 Q 229 -338 209 -328.5 Q 189 -319 172.5 -303.5 Q 156 -288 145 -268 Q 134 -248 130 -226 Q 126 -204 126 -181 Q 126 -159 134.5 -137 Q 143 -115 160.5 -100.5 Q 178 -86 200 -79 Q 222 -72 244.5 -70.5 Q 267 -69 290 -68.5 Q 313 -68 335 -61.5 Q 357 -55 376.5 -43 Q 396 -31 410 -13 Q 424 5 430 27.5 Q 436 50 436 72 Q 436 103 425.5 132 Q 415 161 392 180.5 Q 369 200 339 207.5 Q 309 215 279 215 L 250 215 L 250 145 L 279 145 Q 295 145 310 141 Q 325 137 336.5 127 Q 348 117 353 102.5 Q 358 88 358 73 Z " id="path1"/>
</defs>
<g>
<g data-source-text="ξ" fill="#dee4e3" transform="translate(40 104.99201) rotate(0) scale(0.09599999)">
<use href="#path1" transform="translate(0 0)"/>
</g>
</g>
</svg>