<?xml version="1.0" encoding="UTF-8" standalone="no"?>
<svg height="160" viewBox="0 0 128 160" width="128" xmlns="http://www.w3.org/2000/svg">
<defs>
<path d="M 64 0 L 64 -74 Q 64 -90 67 -106 Q 70 -122 74.5 -138 Q 79 -154 83.5 -170 Q 88 -186 93 -201 L 207 -537 L 186 -615 Q 183 -626 179 -636 Q 175 -646 167.5 -653 Q 160 -660 149.5 -662.5 Q 139 -665 129 -665 L 76 -665 L 76 -735 L 129 -735 Q 152 -735 175.5 -731 Q 199 -727 217 -713 Q 235 -699 245 -677.5 Q 255 -656 261 -633 L 375 -201 Q 378 -190 381 -179 Q 384 -168 386.5 -156.5 Q 389 -145 391.5 -134 Q 394 -123 398.5 -112.5 Q 403 -102 409 -92 Q 415 -82 424 -74.5 Q 433 -67 444.5 -64.5 Q 456 -62 467 -62 L 467 8 Q 444 8 420.5 3 Q 397 -2 378 -16 Q 359 -30 346 -50.5 Q 333 -71 324.5 -93 Q 316 -115 311 -138 Q 306 -161 300 -184 L 243 -414 L 167 -180 Q 167 -178 166 -176 Q 165 -174 165 -172 L 164 -171 Q 163 -169 162.5 -166.5 Q 162 -164 161 -162 L 161 -161 Q 154 -140 148 -118 Q 142 -96 142 -74 L 142 0 Z " id="path1"/>
</defs>
<g>
<g data-source-text="λ" fill="#20242e" transform="translate(40 104.99201) rotate(0) scale(0.09599999)">
<use href="#path1" transform="translate(0 0)"/>
</g>
</g>
</svg>