<?xml version="1.0" encoding="UTF-8" standalone="no"?>
<svg height="160" viewBox="0 0 128 160" width="128" xmlns="http://www.w3.org/2000/svg">
<defs>
<path d="M 122 0 L 122 -1 Q 124 -3 125 -5.5 Q 126 -8 128 -11 L 210 -159 L 150 -343 Q 146 -355 142.5 -367 Q 139 -379 135 -391 Q 131 -403 125.5 -415 Q 120 -427 111 -435.5 Q 102 -444 89.5 -447 Q 77 -450 64 -450 L 64 -520 Q 84 -520 104.5 -517 Q 125 -514 142.5 -503.5 Q 160 -493 171.5 -475.5 Q 183 -458 192 -439.5 Q 201 -421 208 -402 Q 215 -383 221 -363 L 258 -246 L 304 -328 Q 314 -346 323.5 -364.5 Q 333 -383 340.5 -402.5 Q 348 -422 353 -442.5 Q 358 -463 358 -483 L 358 -520 L 436 -520 L 436 -483 Q 436 -460 430.5 -436.5 Q 425 -413 417 -391 Q 409 -369 399 -347.5 Q 389 -326 378 -305 L 378 -304 Q 376 -302 375 -299.5 Q 374 -297 372 -294 L 290 -146 L 350 38 Q 354 50 357.5 62 Q 361 74 365 86 Q 369 98 374.5 110 Q 380 122 389 130.5 Q 398 139 410.5 142 Q 423 145 436 145 L 436 215 Q 416 215 395.5 212 Q 375 209 357.5 198.5 Q 340 188 328.5 170.5 Q 317 153 308 134.5 Q 299 116 292 97 Q 285 78 279 58 L 242 -59 L 196 23 Q 186 41 176.5 59.5 Q 167 78 159.5 97.5 Q 152 117 147 137.5 Q 142 158 142 178 L 142 215 L 64 215 L 64 178 Q 64 155 69.5 131.5 Q 75 108 83 86 Q 91 64 101 42.5 Q 111 21 122 0 Z " id="path1"/>
</defs>
<g>
<g data-source-text="χ" fill="#dee4e3" transform="translate(40 104.99201) rotate(0) scale(0.09599999)">
<use href="#path1" transform="translate(0 0)"/>
</g>
</g>
</svg>