<?xml version="1.0" encoding="UTF-8" standalone="no"?>
<svg height="160" viewBox="0 0 128 160" width="128" xmlns="http://www.w3.org/2000/svg">
<defs>
<path d="M 18 215 L 18 145 L 64 145 Q 65 122 71 99.5 Q 77 77 86 55.5 Q 95 34 106 13.5 Q 117 -7 129 -26 L 210 -160 L 150 -343 Q 146 -355 142.5 -367 Q 139 -379 135 -391 Q 131 -403 125.5 -415 Q 120 -427 111 -435.5 Q 102 -444 89.5 -447 Q 77 -450 64 -450 L 18 -450 L 18 -520 L 64 -520 Q 84 -520 104.5 -517 Q 125 -514 142.5 -503.5 Q 160 -493 171.5 -475.5 Q 183 -458 192 -439.5 Q 201 -421 208 -402 Q 215 -383 221 -363 L 260 -241 L 305 -315 Q 315 -331 323.5 -347 Q 332 -363 339.5 -379.5 Q 347 -396 352.5 -414 Q 358 -432 358 -450 L 312 -450 L 312 -520 L 482 -520 L 482 -450 L 436 -450 Q 435 -427 429 -404.5 Q 423 -382 414 -360.5 Q 405 -339 394 -318.5 Q 383 -298 371 -279 L 290 -145 L 350 38 Q 354 50 357.5 62 Q 361 74 365 86 Q 369 98 374.5 110 Q 380 122 389 130.5 Q 398 139 410.5 142 Q 423 145 436 145 L 482 145 L 482 215 L 436 215 Q 416 215 395.5 212 Q 375 209 357.5 198.5 Q 340 188 328.5 170.5 Q 317 153 308 134.5 Q 299 116 292 97 Q 285 78 279 58 L 240 -64 L 195 10 Q 185 26 176.5 42 Q 168 58 160.5 74.5 Q 153 91 147.5 109 Q 142 127 142 145 L 188 145 L 188 215 Z " id="path1"/>
</defs>
<g>
<g data-source-text="χ" fill="#dee4e3" transform="translate(40 104.99201) rotate(0) scale(0.09599999)">
<use href="#path1" transform="translate(0 0)"/>
</g>
</g>
</svg>