<?xml version="1.0" encoding="UTF-8" standalone="no"?>
<svg height="160" viewBox="0 0 128 160" width="128" xmlns="http://www.w3.org/2000/svg">
<defs>
<path d="M 64 0 L 64 -74 Q 64 -90 67 -106 Q 70 -122 74.5 -138 Q 79 -154 83.5 -170 Q 88 -186 93 -201 L 209 -546 L 187 -611 Q 184 -621 180 -631.5 Q 176 -642 168.5 -650.5 Q 161 -659 150.5 -662 Q 140 -665 129 -665 L 76 -665 L 76 -735 L 129 -735 Q 152 -735 175 -730.5 Q 198 -726 215.5 -711.5 Q 233 -697 243.5 -676 Q 254 -655 261 -633 L 407 -201 Q 412 -186 416.5 -170 Q 421 -154 425.5 -138 Q 430 -122 433 -106 Q 436 -90 436 -74 L 436 0 L 358 0 L 358 -74 Q 358 -96 352 -118.5 Q 346 -141 339 -162 Q 337 -167 335.5 -171 Q 334 -175 333 -180 L 250 -436 L 167 -180 Q 167 -178 166 -176 Q 165 -174 165 -172 L 164 -171 Q 163 -169 162.5 -166.5 Q 162 -164 161 -162 L 161 -161 Q 154 -140 148 -118 Q 142 -96 142 -74 L 142 0 Z " id="path1"/>
</defs>
<g>
<g data-source-text="λ" fill="#20242e" transform="translate(40 104.99201) rotate(0) scale(0.09599999)">
<use href="#path1" transform="translate(0 0)"/>
</g>
</g>
</svg>