<?xml version="1.0" encoding="UTF-8" standalone="no"?>
<svg height="160" viewBox="0 0 128 160" width="128" xmlns="http://www.w3.org/2000/svg">
<defs>
<path d="M 64 0 L 64 -70 Q 79 -70 93.5 -72 Q 108 -74 119.5 -83.5 Q 131 -93 138 -106 Q 145 -119 152 -132 L 211 -260 L 152 -388 Q 145 -401 138 -414 Q 131 -427 119.5 -436.5 Q 108 -446 93.5 -448 Q 79 -450 64 -450 L 64 -520 Q 81 -520 98 -519 Q 115 -518 131.5 -513 Q 148 -508 161.5 -497.5 Q 175 -487 185.5 -474 Q 196 -461 204.5 -446 Q 213 -431 220 -416 L 250 -348 L 280 -416 Q 287 -431 295.5 -446 Q 304 -461 314.5 -474 Q 325 -487 338.5 -497.5 Q 352 -508 368.5 -513 Q 385 -518 402 -519 Q 419 -520 436 -520 L 436 -450 Q 421 -450 406.5 -448 Q 392 -446 380.5 -436.5 Q 369 -427 362 -414 Q 355 -401 348 -388 L 289 -260 L 348 -132 Q 355 -119 362 -106 Q 369 -93 380.5 -83.5 Q 392 -74 406.5 -72 Q 421 -70 436 -70 L 436 0 Q 419 -0 402 -1 Q 385 -2 368.5 -7 Q 352 -12 338.5 -22.5 Q 325 -33 314.5 -46 Q 304 -59 295.5 -74 Q 287 -89 280 -104 L 250 -172 L 220 -104 Q 213 -89 204.5 -74 Q 196 -59 185.5 -46 Q 175 -33 161.5 -22.5 Q 148 -12 131.5 -7 Q 115 -2 98 -1 Q 81 -0 64 0 Z " id="path1"/>
</defs>
<g>
<g data-source-text="χ" fill="#dee4e3" transform="translate(40 104.99201) rotate(0) scale(0.09599999)">
<use href="#path1" transform="translate(0 0)"/>
</g>
</g>
</svg>