<?xml version="1.0" encoding="UTF-8" standalone="no"?>
<svg height="160" viewBox="0 0 128 160" width="128" xmlns="http://www.w3.org/2000/svg">
<defs>
<path d="M 358 73 Q 358 54 349 37 Q 340 20 323.5 11.5 Q 307 3 288.5 1.5 Q 270 -0 251 -0.5 Q 232 -1 214 -3.5 Q 196 -6 178 -12 Q 160 -18 143.5 -26.5 Q 127 -35 113 -47 Q 99 -59 88 -74 Q 77 -89 70 -106.5 Q 63 -124 60 -142.5 Q 57 -161 57 -179 Q 57 -214 67 -247.5 Q 77 -281 98.5 -308 Q 120 -335 150 -353 Q 180 -371 213 -381 Q 186 -391 161.5 -406 Q 137 -421 119 -442.5 Q 101 -464 92.5 -491.5 Q 84 -519 84 -547 Q 84 -566 88.5 -584 Q 93 -602 103.5 -617.5 Q 114 -633 129 -644.5 Q 144 -656 160 -665 L 64 -665 L 64 -735 L 436 -735 L 436 -665 L 343 -665 Q 323 -665 302.5 -663.5 Q 282 -662 262.5 -657 Q 243 -652 224.5 -643 Q 206 -634 191.5 -620.5 Q 177 -607 169.5 -587.5 Q 162 -568 162 -548 Q 162 -527 168.5 -506.5 Q 175 -486 188.5 -470 Q 202 -454 220.5 -443 Q 239 -432 259.5 -426 Q 280 -420 301 -418 Q 322 -416 343 -416 L 380 -416 L 380 -346 L 343 -346 Q 318 -346 293 -343 Q 268 -340 244 -331.5 Q 220 -323 199 -309 Q 178 -295 163 -275 Q 148 -255 141.5 -230 Q 135 -205 135 -180 Q 135 -158 143 -136.5 Q 151 -115 168 -100.5 Q 185 -86 206.5 -79 Q 228 -72 250.5 -70.5 Q 273 -69 295.5 -68.5 Q 318 -68 339 -61 Q 360 -54 379 -42 Q 398 -30 411.5 -12 Q 425 6 430.5 28 Q 436 50 436 72 Q 436 103 425.5 132 Q 415 161 392 180.5 Q 369 200 339 207.5 Q 309 215 279 215 L 250 215 L 250 145 L 279 145 Q 295 145 310 141 Q 325 137 336.5 127 Q 348 117 353 102.5 Q 358 88 358 73 Z " id="path1"/>
</defs>
<g>
<g data-source-text="ξ" fill="#20242e" transform="translate(40 104.99201) rotate(0) scale(0.09599999)">
<use href="#path1" transform="translate(0 0)"/>
</g>
</g>
</svg>