<?xml version="1.0" encoding="UTF-8" standalone="no"?>
<svg height="160" viewBox="0 0 128 160" width="128" xmlns="http://www.w3.org/2000/svg">
<defs>
<path d="M 482 0 L 250 0 Q 235 -0 220 -1 Q 205 -2 190.5 -6 Q 176 -10 162.5 -16.5 Q 149 -23 137 -31 Q 139 3 140.5 38 Q 142 73 142 107 L 142 215 L 64 215 L 64 -450 L 18 -450 L 18 -520 L 142 -520 L 142 -200 Q 142 -176 147 -152 Q 152 -128 166.5 -109 Q 181 -90 203.5 -80 Q 226 -70 250 -70 L 358 -70 L 358 -450 L 312 -450 L 312 -520 L 436 -520 L 436 -70 L 482 -70 Z " id="path1"/>
</defs>
<g>
<g data-source-text="µ" fill="#20242e" transform="translate(40 104.99201) rotate(0) scale(0.09599999)">
<use href="#path1" transform="translate(0 0)"/>
</g>
</g>
</svg>