<?xml version="1.0" encoding="UTF-8" standalone="no"?>
<svg height="160" viewBox="0 0 128 160" width="128" xmlns="http://www.w3.org/2000/svg">
<defs>
<path d="M 64 215 L 64 -471 Q 103 -498 149.5 -513 Q 196 -528 244 -528 Q 271 -528 298.5 -523 Q 326 -518 350 -505 Q 374 -492 393 -471.5 Q 412 -451 423.5 -426.5 Q 435 -402 439.5 -374.5 Q 444 -347 444 -320 L 444 -200 Q 444 -175 441.5 -150.5 Q 439 -126 431 -102.5 Q 423 -79 410 -58 Q 397 -37 377.5 -21.5 Q 358 -6 334 1 Q 310 8 285 8 Q 261 8 238 1.5 Q 215 -5 196 -19 Q 177 -33 163.5 -53 Q 150 -73 142 -96 L 142 215 Z M 142 -434 L 142 -200 Q 142 -183 144 -166.5 Q 146 -150 151.5 -134 Q 157 -118 167 -104 Q 177 -90 190.5 -80 Q 204 -70 220.5 -66 Q 237 -62 254 -62 Q 271 -62 287.5 -66 Q 304 -70 317.5 -80 Q 331 -90 341 -104 Q 351 -118 356.5 -134 Q 362 -150 364 -166.5 Q 366 -183 366 -200 L 366 -320 Q 366 -337 363.5 -354.5 Q 361 -372 354.5 -388.5 Q 348 -405 337 -418.5 Q 326 -432 311 -441.5 Q 296 -451 278.5 -454.5 Q 261 -458 244 -458 Q 217 -458 191 -452 Q 165 -446 142 -434 Z " id="path1"/>
</defs>
<g>
<g data-source-text="p" fill="#20242e" transform="translate(40 104.99201) rotate(0) scale(0.09599999)">
<use href="#path1" transform="translate(0 0)"/>
</g>
</g>
</svg>