<?xml version="1.0" encoding="UTF-8" standalone="no"?>
<svg height="160" viewBox="0 0 128 160" width="128" xmlns="http://www.w3.org/2000/svg">
<defs>
<path d="M 358 -96 Q 350 -73 336.5 -53 Q 323 -33 304 -19 Q 285 -5 262 1.5 Q 239 8 215 8 Q 190 8 166 1 Q 142 -6 122.5 -21.5 Q 103 -37 90 -58 Q 77 -79 69 -102.5 Q 61 -126 58.5 -150.5 Q 56 -175 56 -200 L 56 -320 Q 56 -347 60.5 -374.5 Q 65 -402 76.5 -426.5 Q 88 -451 107 -471.5 Q 126 -492 150 -505 Q 174 -518 201.5 -523 Q 229 -528 256 -528 Q 304 -528 350.5 -513 Q 397 -498 436 -471 L 436 215 L 358 215 Z M 358 -200 L 358 -434 Q 335 -446 309 -452 Q 283 -458 256 -458 Q 239 -458 221.5 -454.5 Q 204 -451 189 -441.5 Q 174 -432 163 -418.5 Q 152 -405 145.5 -388.5 Q 139 -372 136.5 -354.5 Q 134 -337 134 -320 L 134 -200 Q 134 -183 136 -166.5 Q 138 -150 143.5 -134 Q 149 -118 159 -104 Q 169 -90 182.5 -80 Q 196 -70 212.5 -66 Q 229 -62 246 -62 Q 263 -62 279.5 -66 Q 296 -70 309.5 -80 Q 323 -90 333 -104 Q 343 -118 348.5 -134 Q 354 -150 356 -166.5 Q 358 -183 358 -200 Z " id="path1"/>
</defs>
<g>
<g data-source-text="q" fill="#dee4e3" transform="translate(40 104.99201) rotate(0) scale(0.09599999)">
<use href="#path1" transform="translate(0 0)"/>
</g>
</g>
</svg>