<?xml version="1.0" encoding="UTF-8" standalone="no"?>
<svg height="160" viewBox="0 0 128 160" width="128" xmlns="http://www.w3.org/2000/svg">
<defs>
<path d="M 358 -96 Q 350 -73 336.5 -53 Q 323 -33 304 -19 Q 285 -5 262 1.5 Q 239 8 215 8 Q 190 8 166 1 Q 142 -6 122.5 -21.5 Q 103 -37 90 -58 Q 77 -79 69 -102.5 Q 61 -126 58.5 -150.5 Q 56 -175 56 -200 L 56 -320 Q 56 -346 60.5 -372.5 Q 65 -399 76 -423 Q 87 -447 105.5 -466.5 Q 124 -486 147.5 -498 Q 171 -510 197.5 -515 Q 224 -520 250 -520 L 482 -520 L 482 -450 L 436 -450 L 436 215 L 358 215 Z M 358 -200 L 358 -450 L 250 -450 Q 233 -450 217 -446.5 Q 201 -443 186.5 -434.5 Q 172 -426 161.5 -413 Q 151 -400 144.5 -384.5 Q 138 -369 136 -353 Q 134 -337 134 -320 L 134 -200 Q 134 -183 136 -166.5 Q 138 -150 143.5 -134 Q 149 -118 159 -104 Q 169 -90 182.5 -80 Q 196 -70 212.5 -66 Q 229 -62 246 -62 Q 263 -62 279.5 -66 Q 296 -70 309.5 -80 Q 323 -90 333 -104 Q 343 -118 348.5 -134 Q 354 -150 356 -166.5 Q 358 -183 358 -200 Z " id="path1"/>
</defs>
<g>
<g data-source-text="q" fill="#dee4e3" transform="translate(40 104.99201) rotate(0) scale(0.09599999)">
<use href="#path1" transform="translate(0 0)"/>
</g>
</g>
</svg>