<?xml version="1.0" encoding="UTF-8" standalone="no"?>
<svg height="160" viewBox="0 0 128 160" width="128" xmlns="http://www.w3.org/2000/svg">
<defs>
<path d="M 64 0 L 64 -1 Q 64 -28 65 -55 Q 66 -82 70.5 -109 Q 75 -136 83.5 -161.5 Q 92 -187 104.5 -211 Q 117 -235 133.5 -256.5 Q 150 -278 169.5 -297 Q 189 -316 210.5 -333 Q 232 -350 254 -365.5 Q 276 -381 296.5 -399 Q 317 -417 332 -439.5 Q 347 -462 354.5 -488.5 Q 362 -515 362 -542 Q 362 -566 356.5 -590.5 Q 351 -615 336.5 -634.5 Q 322 -654 298.5 -663.5 Q 275 -673 251 -673 Q 228 -673 206.5 -665.5 Q 185 -658 169.5 -641.5 Q 154 -625 147 -603.5 Q 140 -582 140 -559 L 140 -555 L 62 -555 L 62 -561 Q 62 -586 67.5 -610.5 Q 73 -635 85 -656.5 Q 97 -678 115 -695.5 Q 133 -713 155 -724 Q 177 -735 201.5 -739 Q 226 -743 251 -743 Q 277 -743 303 -738 Q 329 -733 352 -720 Q 375 -707 392.5 -687.5 Q 410 -668 421 -644 Q 432 -620 436 -594 Q 440 -568 440 -542 Q 440 -506 429.5 -470.5 Q 419 -435 398.5 -405.5 Q 378 -376 350.5 -352.5 Q 323 -329 294.5 -306.5 Q 266 -284 239.5 -259.5 Q 213 -235 192.5 -205 Q 172 -175 160 -140.5 Q 148 -106 144 -70 L 436 -70 L 436 0 Z " id="path1"/>
</defs>
<g>
<g data-source-text="2" fill="#20242e" transform="translate(40 104.99201) rotate(0) scale(0.09599999)">
<use href="#path1" transform="translate(0 0)"/>
</g>
</g>
</svg>