<?xml version="1.0" encoding="UTF-8" standalone="no"?>
<svg height="160" viewBox="0 0 128 160" width="128" xmlns="http://www.w3.org/2000/svg">
<defs>
<path d="M 250 0 Q 224 -0 198.5 -5 Q 173 -10 150.5 -23 Q 128 -36 110.5 -55.5 Q 93 -75 82.5 -99 Q 72 -123 68 -148.5 Q 64 -174 64 -200 L 64 -450 L 18 -450 L 18 -520 L 142 -520 L 142 -200 Q 142 -176 147 -152 Q 152 -128 166.5 -109 Q 181 -90 203.5 -80 Q 226 -70 250 -70 L 358 -70 L 358 -450 L 312 -450 L 312 -520 L 436 -520 L 436 -70 L 482 -70 L 482 0 Z " id="path1"/>
</defs>
<g>
<g data-source-text="u" fill="#dee4e3" transform="translate(40 104.99201) rotate(0) scale(0.09599999)">
<use href="#path1" transform="translate(0 0)"/>
</g>
</g>
</svg>