<?xml version="1.0" encoding="UTF-8" standalone="no"?>
<svg height="160" viewBox="0 0 128 160" width="128" xmlns="http://www.w3.org/2000/svg">
<defs>
<path d="M 18 0 L 18 -70 L 65 -70 Q 67 -87 74.5 -103 Q 82 -119 91 -133.5 Q 100 -148 110.5 -161.5 Q 121 -175 133 -188 L 207 -268 L 152 -388 Q 145 -401 138 -414 Q 131 -427 119.5 -436.5 Q 108 -446 93.5 -448 Q 79 -450 64 -450 L 18 -450 L 18 -520 L 64 -520 Q 81 -520 98 -519 Q 115 -518 131.5 -513 Q 148 -508 161.5 -497.5 Q 175 -487 185.5 -474 Q 196 -461 204.5 -446 Q 213 -431 220 -416 L 260 -325 L 310 -380 Q 312 -382 314 -384 Q 316 -386 317 -388 Q 330 -401 341.5 -416.5 Q 353 -432 357 -450 L 312 -450 L 312 -520 L 482 -520 L 482 -450 L 435 -450 Q 433 -433 425.5 -417 Q 418 -401 409 -386.5 Q 400 -372 389.5 -358.5 Q 379 -345 367 -332 L 293 -252 L 348 -132 Q 355 -119 362 -106 Q 369 -93 380.5 -83.5 Q 392 -74 406.5 -72 Q 421 -70 436 -70 L 482 -70 L 482 0 L 436 0 Q 419 -0 402 -1 Q 385 -2 368.5 -7 Q 352 -12 338.5 -22.5 Q 325 -33 314.5 -46 Q 304 -59 295.5 -74 Q 287 -89 280 -104 L 240 -195 L 190 -140 Q 188 -138 186 -136 Q 184 -134 183 -132 Q 170 -119 158.5 -103.5 Q 147 -88 143 -70 L 188 -70 L 188 0 Z " id="path1"/>
</defs>
<g>
<g data-source-text="x" fill="#20242e" transform="translate(40 104.99201) rotate(0) scale(0.09599999)">
<use href="#path1" transform="translate(0 0)"/>
</g>
</g>
</svg>